# xmcd
#
# Track frame offsets:
#	150
#	8506
#	20030
#	33596
#	45436
#	58549
#	68710
#	80099
#	96651
#	108017
#
# Disc length: 1622 seconds
#
# Revision: 0
# Processed by: cddbd v1.5.2PL0 Copyright (c) Steve Scherf et al.
# Submitted via: audiograbber 1.83.01
#
DISCID=7906540a
DTITLE=Various Artist - #1 Rhinestone hits
DYEAR=1900
DGENRE=
TTITLE0=johnny cash - guess things happen that way
TTITLE1=freddy fender - before the next teardrop falls
TTITLE2=glen campbell - rhinestone cowboy
TTITLE3=hank williams - long gone lonesome blues
TTITLE4=ray price - city lights
TTITLE5=george jones - walk through this world with me
TTITLE6=charlie rich - rollin' with the flow
TTITLE7=doug stone - in a different light
TTITLE8=kitty wells - it wasn't god who made honky tonk angels
TTITLE9=red foley and ernest tubb w/ the sunshine trio - goodnight irene
EXTD=
EXTT0=
EXTT1=
EXTT2=
EXTT3=
EXTT4=
EXTT5=
EXTT6=
EXTT7=
EXTT8=
EXTT9=
PLAYORDER=
